# xmcd
#
# Track frame offsets: 
#        187
#        11617
#        23625
#        34972
#        47080
#        58980
#        70605
#        81815
#        94842
#        104805
#        114340
#        124807
#        133775
#        143910
#        153532
#
# Disc length: 2154 seconds
#
# Revision: 2
# Processed by: cddbd v1.5.1PL0 Copyright (c) Steve Scherf et al.
# Submitted via: ExactAudioCopy v0.95a5
#
DISCID=d208680f
DTITLE=Jim Reeves - Welcome To My World: The Essential Jim Reeves Coll
DTITLE=ection [Disc 1]
DYEAR=1993
DGENRE=Country
TTITLE0=My Heart's Like A Welcome Mat
TTITLE1=Mexican Joe
TTITLE2=My Rambling Heart
TTITLE3=The Padre Of Old San Antone
TTITLE4=Where Does A Broken Heart Go
TTITLE5=Yonder Comes A Sucker
TTITLE6=According To My Heart
TTITLE7=Four Walls
TTITLE8=Blue Boy
TTITLE9=Billy Bayou
TTITLE10=Am I Losing You
TTITLE11=Home
TTITLE12=Partners
TTITLE13=Need Me
TTITLE14=I Know One
EXTD=
EXTT0=
EXTT1=
EXTT2=
EXTT3=
EXTT4=
EXTT5=
EXTT6=
EXTT7=
EXTT8=
EXTT9=
EXTT10=
EXTT11=
EXTT12=
EXTT13=
EXTT14=
PLAYORDER=
